<svg width="145" height="60" viewBox="0 0 145 60" fill="none" xmlns="http://www.w3.org/2000/svg">
<path fill-rule="evenodd" clip-rule="evenodd" d="M15.6824 11.4462C15.6464 11.5542 15.6824 11.5902 15.7904 11.5542C15.8012 11.5511 15.8111 11.5455 15.8192 11.5377C15.8273 11.53 15.8334 11.5204 15.8369 11.5097C15.8405 11.4991 15.8413 11.4877 15.8395 11.4767C15.8377 11.4656 15.8332 11.4552 15.8264 11.4462C15.7904 11.3382 15.7184 11.3382 15.6824 11.4462Z" fill="black"/>
<path d="M41.5827 1.48242H47.8057L41.0787 22.0574H34.5327L27.8057 1.48242H34.0647L36.8707 11.9144C37.3101 13.5078 37.6346 15.1306 37.8417 16.7704C37.9298 15.9483 38.0633 15.1318 38.2417 14.3244C38.4217 13.3534 38.6017 12.5614 38.7417 11.9864L41.5827 1.48242Z" fill="black"/>
<path d="M65.5748 22.0932L64.5677 18.2442H57.8768L56.8338 22.0932H50.7188L57.4458 1.41016H64.8557L71.6557 22.0932H65.5748ZM63.3808 13.6762L62.4807 10.2952C62.2647 9.53982 62.0131 8.56849 61.7258 7.38116C61.4378 6.19416 61.2257 5.33116 61.1497 4.82716C61.0778 5.29516 60.8977 6.08616 60.6497 7.20116C60.4017 8.31616 59.8588 10.4742 58.9948 13.6762H63.3808Z" fill="black"/>
<path d="M76.7617 22.0934V1.48242H82.3377V17.5614H90.2517V22.0614H76.7617V22.0934Z" fill="black"/>
<path d="M141.87 22.0934H134.57L127.052 7.59342H126.908C127.088 9.85942 127.16 11.6224 127.16 12.8094V22.0904H122.229V1.48242H129.496L137.049 15.7984H137.121C136.977 13.7124 136.941 12.0574 136.941 10.7984V1.48242H141.906V22.0934H141.87Z" fill="black"/>
<path d="M20 1H2V6H20V1Z" fill="#5145EF"/>
<path d="M2 10H20V15H2V10Z" fill="#5145EF"/>
<path d="M6.89648 22.7093L6.89648 1.15527L1.72348 1.15527L1.72348 22.7093H6.89648Z" fill="#5145EF"/>
<path d="M19.8301 22.7093V1.15527L14.6571 1.15527V22.7093H19.8301Z" fill="#5145EF"/>
<path d="M105.5 23C111.851 23 117 17.8513 117 11.5C117 5.14873 111.851 0 105.5 0C99.1487 0 94 5.14873 94 11.5C94 17.8513 99.1487 23 105.5 23Z" fill="#4BC592"/>
<path d="M105.5 15C107.433 15 109 13.433 109 11.5C109 9.567 107.433 8 105.5 8C103.567 8 102 9.567 102 11.5C102 13.433 103.567 15 105.5 15Z" fill="white"/>
<path opacity="0.58" d="M3.47656 55H1.83594V40.9961H3.47656V55ZM17.657 55H15.6453L8.43828 43.8379C8.25599 43.5579 8.10625 43.265 7.98906 42.959H7.93047C7.98255 43.2585 8.00859 43.8997 8.00859 44.8828V55H6.36797V40.9961H8.49687L15.5086 51.9824C15.8016 52.4382 15.9904 52.7507 16.075 52.9199H16.1141C16.049 52.5163 16.0164 51.8294 16.0164 50.8594V40.9961H17.657V55ZM30.0602 54.4141C29.025 54.9609 27.7359 55.2344 26.193 55.2344C24.2008 55.2344 22.6057 54.5931 21.4078 53.3105C20.2099 52.028 19.6109 50.3451 19.6109 48.2617C19.6109 46.0221 20.2848 44.2122 21.6324 42.832C22.9801 41.4518 24.6891 40.7617 26.7594 40.7617C28.0875 40.7617 29.1878 40.9538 30.0602 41.3379V43.0859C29.0576 42.526 27.9508 42.2461 26.7398 42.2461C25.1318 42.2461 23.8264 42.7832 22.8238 43.8574C21.8277 44.9316 21.3297 46.3672 21.3297 48.1641C21.3297 49.8698 21.7952 51.2305 22.7262 52.2461C23.6637 53.2552 24.8909 53.7598 26.4078 53.7598C27.8141 53.7598 29.0315 53.4473 30.0602 52.8223V54.4141ZM37.2094 55.2344C35.2237 55.2344 33.6319 54.5801 32.434 53.2715C31.2426 51.9629 30.6469 50.2604 30.6469 48.1641C30.6469 45.9115 31.2556 44.1146 32.473 42.7734C33.6905 41.4323 35.3474 40.7617 37.4438 40.7617C39.3773 40.7617 40.9333 41.4128 42.1117 42.7148C43.2966 44.0169 43.8891 45.7194 43.8891 47.8223C43.8891 50.1074 43.2836 51.9141 42.0727 53.2422C40.8617 54.5703 39.2406 55.2344 37.2094 55.2344ZM37.3266 42.2461C35.8552 42.2461 34.6605 42.7767 33.7426 43.8379C32.8246 44.8991 32.3656 46.2923 32.3656 48.0176C32.3656 49.7428 32.8116 51.1328 33.7035 52.1875C34.602 53.2357 35.7706 53.7598 37.2094 53.7598C38.7458 53.7598 39.9568 53.2585 40.8422 52.2559C41.7276 51.2533 42.1703 49.8503 42.1703 48.0469C42.1703 46.1979 41.7406 44.7689 40.8813 43.7598C40.0219 42.7507 38.837 42.2461 37.3266 42.2461ZM55.882 55H53.9289L51.5852 51.0742C51.3703 50.7096 51.162 50.4004 50.9602 50.1465C50.7583 49.8861 50.55 49.6745 50.3352 49.5117C50.1268 49.349 49.899 49.2318 49.6516 49.1602C49.4107 49.082 49.1372 49.043 48.8312 49.043H47.4836V55H45.843V40.9961H50.0227C50.6346 40.9961 51.1978 41.0742 51.7121 41.2305C52.2329 41.3802 52.6822 41.6113 53.0598 41.9238C53.4439 42.2363 53.7434 42.627 53.9582 43.0957C54.173 43.5579 54.2805 44.1016 54.2805 44.7266C54.2805 45.2148 54.2056 45.6641 54.0559 46.0742C53.9126 46.4779 53.7043 46.8392 53.4309 47.1582C53.1639 47.4772 52.8384 47.7507 52.4543 47.9785C52.0767 48.1999 51.6503 48.3724 51.175 48.4961V48.5352C51.4094 48.6393 51.6112 48.7598 51.7805 48.8965C51.9562 49.0267 52.1223 49.1829 52.2785 49.3652C52.4348 49.5475 52.5878 49.7559 52.7375 49.9902C52.8937 50.2181 53.0663 50.485 53.2551 50.791L55.882 55ZM47.4836 42.4805V47.5586H49.7102C50.1203 47.5586 50.4979 47.4967 50.843 47.373C51.1945 47.2493 51.4973 47.0736 51.7512 46.8457C52.0051 46.6113 52.2036 46.3281 52.3469 45.9961C52.4901 45.6576 52.5617 45.2799 52.5617 44.8633C52.5617 44.1146 52.3176 43.5319 51.8293 43.1152C51.3475 42.6921 50.6477 42.4805 49.7297 42.4805H47.4836ZM58.6562 49.707V55H57.0156V40.9961H60.8633C62.3607 40.9961 63.5195 41.3607 64.3398 42.0898C65.1667 42.819 65.5801 43.8477 65.5801 45.1758C65.5801 46.5039 65.1211 47.5911 64.2031 48.4375C63.2917 49.2839 62.0579 49.707 60.502 49.707H58.6562ZM58.6562 42.4805V48.2227H60.375C61.5078 48.2227 62.3704 47.9655 62.9629 47.4512C63.5618 46.9303 63.8613 46.1979 63.8613 45.2539C63.8613 43.4049 62.7676 42.4805 60.5801 42.4805H58.6562ZM73.0711 55.2344C71.0854 55.2344 69.4936 54.5801 68.2957 53.2715C67.1043 51.9629 66.5086 50.2604 66.5086 48.1641C66.5086 45.9115 67.1173 44.1146 68.3348 42.7734C69.5522 41.4323 71.2091 40.7617 73.3055 40.7617C75.2391 40.7617 76.795 41.4128 77.9734 42.7148C79.1583 44.0169 79.7508 45.7194 79.7508 47.8223C79.7508 50.1074 79.1453 51.9141 77.9344 53.2422C76.7234 54.5703 75.1023 55.2344 73.0711 55.2344ZM73.1883 42.2461C71.7169 42.2461 70.5223 42.7767 69.6043 43.8379C68.6863 44.8991 68.2273 46.2923 68.2273 48.0176C68.2273 49.7428 68.6733 51.1328 69.5652 52.1875C70.4637 53.2357 71.6323 53.7598 73.0711 53.7598C74.6075 53.7598 75.8185 53.2585 76.7039 52.2559C77.5893 51.2533 78.032 49.8503 78.032 48.0469C78.032 46.1979 77.6023 44.7689 76.743 43.7598C75.8836 42.7507 74.6987 42.2461 73.1883 42.2461ZM91.7438 55H89.7906L87.4469 51.0742C87.232 50.7096 87.0237 50.4004 86.8219 50.1465C86.6201 49.8861 86.4117 49.6745 86.1969 49.5117C85.9885 49.349 85.7607 49.2318 85.5133 49.1602C85.2724 49.082 84.999 49.043 84.693 49.043H83.3453V55H81.7047V40.9961H85.8844C86.4964 40.9961 87.0595 41.0742 87.5738 41.2305C88.0947 41.3802 88.5439 41.6113 88.9215 41.9238C89.3056 42.2363 89.6051 42.627 89.8199 43.0957C90.0348 43.5579 90.1422 44.1016 90.1422 44.7266C90.1422 45.2148 90.0673 45.6641 89.9176 46.0742C89.7744 46.4779 89.566 46.8392 89.2926 47.1582C89.0257 47.4772 88.7001 47.7507 88.316 47.9785C87.9384 48.1999 87.512 48.3724 87.0367 48.4961V48.5352C87.2711 48.6393 87.4729 48.7598 87.6422 48.8965C87.818 49.0267 87.984 49.1829 88.1402 49.3652C88.2965 49.5475 88.4495 49.7559 88.5992 49.9902C88.7555 50.2181 88.928 50.485 89.1168 50.791L91.7438 55ZM83.3453 42.4805V47.5586H85.5719C85.982 47.5586 86.3596 47.4967 86.7047 47.373C87.0563 47.2493 87.359 47.0736 87.6129 46.8457C87.8668 46.6113 88.0654 46.3281 88.2086 45.9961C88.3518 45.6576 88.4234 45.2799 88.4234 44.8633C88.4234 44.1146 88.1793 43.5319 87.691 43.1152C87.2092 42.6921 86.5094 42.4805 85.5914 42.4805H83.3453ZM103.717 55H101.901L100.416 51.0742H94.4789L93.0824 55H91.2562L96.6273 40.9961H98.3266L103.717 55ZM99.8793 49.5996L97.682 43.6328C97.6104 43.4375 97.5388 43.125 97.4672 42.6953H97.4281C97.363 43.0924 97.2881 43.4049 97.2035 43.6328L95.0258 49.5996H99.8793ZM111.823 42.4805H107.78V55H106.14V42.4805H102.107V40.9961H111.823V42.4805ZM114.871 55H113.23V40.9961H114.871V55ZM123.407 55.2344C121.421 55.2344 119.83 54.5801 118.632 53.2715C117.44 51.9629 116.845 50.2604 116.845 48.1641C116.845 45.9115 117.453 44.1146 118.671 42.7734C119.888 41.4323 121.545 40.7617 123.641 40.7617C125.575 40.7617 127.131 41.4128 128.309 42.7148C129.494 44.0169 130.087 45.7194 130.087 47.8223C130.087 50.1074 129.481 51.9141 128.27 53.2422C127.059 54.5703 125.438 55.2344 123.407 55.2344ZM123.524 42.2461C122.053 42.2461 120.858 42.7767 119.94 43.8379C119.022 44.8991 118.563 46.2923 118.563 48.0176C118.563 49.7428 119.009 51.1328 119.901 52.1875C120.8 53.2357 121.968 53.7598 123.407 53.7598C124.943 53.7598 126.154 53.2585 127.04 52.2559C127.925 51.2533 128.368 49.8503 128.368 48.0469C128.368 46.1979 127.938 44.7689 127.079 43.7598C126.22 42.7507 125.035 42.2461 123.524 42.2461ZM143.33 55H141.318L134.111 43.8379C133.929 43.5579 133.779 43.265 133.662 42.959H133.603C133.655 43.2585 133.681 43.8997 133.681 44.8828V55H132.041V40.9961H134.17L141.181 51.9824C141.474 52.4382 141.663 52.7507 141.748 52.9199H141.787C141.722 52.5163 141.689 51.8294 141.689 50.8594V40.9961H143.33V55Z" fill="black"/>
</svg>
