<svg width="727" height="637" viewBox="0 0 727 637" fill="none" xmlns="http://www.w3.org/2000/svg">
<g clip-path="url(#clip0_861_707)">
<path d="M272 435C305.689 435 333 407.689 333 374C333 340.311 305.689 313 272 313C238.311 313 211 340.311 211 374C211 407.689 238.311 435 272 435Z" fill="#FF4849"/>
<path d="M513.524 208.443L287.649 442.118C279.205 450.854 279.441 464.781 288.177 473.226L327.003 510.756C335.739 519.2 349.667 518.964 358.111 510.228L583.986 276.553C592.431 267.817 592.194 253.889 583.458 245.445L544.632 207.915C535.896 199.47 521.969 199.707 513.524 208.443Z" fill="#4BC592"/>
<path d="M634.487 2.62838L505.211 18.5015C493.151 19.9822 484.575 30.9589 486.056 43.0186L487.995 58.809C489.476 70.8687 500.452 79.4447 512.512 77.9639L641.788 62.0908C653.848 60.6101 662.424 49.6334 660.943 37.5737L659.004 21.7833C657.524 9.72357 646.547 1.14763 634.487 2.62838Z" fill="#8F3A8C"/>
<path d="M477.813 104.827L489.121 185.283C490.812 197.315 501.936 205.699 513.969 204.008L529.723 201.793C541.755 200.102 550.138 188.978 548.447 176.946L537.139 96.4894C535.448 84.4574 524.324 76.0743 512.292 77.7653L496.538 79.9794C484.505 81.6704 476.122 92.7951 477.813 104.827Z" fill="#8A9EE6"/>
<path d="M177.34 393.682L495.002 555.544C467.253 584.212 431.04 603.223 391.685 609.785C352.33 616.347 311.908 610.113 276.358 591.999C240.809 573.885 212.007 544.847 194.184 509.15C176.361 473.454 170.457 432.982 177.34 393.682Z" fill="#FFC5BE"/>
<path d="M277.356 622.665L0.213692 637.189C3.88562 621.889 9.92982 607.258 18.1268 593.827C26.1521 580.652 36.1853 568.812 47.8639 558.733C59.5352 548.643 72.7617 540.508 87.0308 534.643C116.67 522.521 149.542 520.798 180.287 529.755C195.092 534.097 209.098 540.805 221.761 549.619C234.431 558.422 245.649 569.149 255.009 581.413C264.565 593.913 272.105 607.832 277.356 622.665Z" fill="#088292"/>
<path d="M698 64H622C605.984 64 593 76.9837 593 93V581C593 597.016 605.984 610 622 610H698C714.016 610 727 597.016 727 581V93C727 76.9837 714.016 64 698 64Z" fill="#EF8451"/>
</g>
<defs>
<clipPath id="clip0_861_707">
<rect width="727" height="637" fill="white"/>
</clipPath>
</defs>
</svg>
